<?xml version="1.0" ?><svg style="enable-background:new 0 0 64 64;" version="1.1" viewBox="0 0 64 64" xml:space="preserve" xmlns="http://www.w3.org/2000/svg" xmlns:xlink="http://www.w3.org/1999/xlink"><style type="text/css">
	.st0{enable-background:new    ;}
	.st1{fill-rule:evenodd;clip-rule:evenodd;fill:#A4C3FF;}
	.st2{fill-rule:evenodd;clip-rule:evenodd;fill:#54596E;}
	.st3{fill-rule:evenodd;clip-rule:evenodd;fill:#FFFFFF;}
	.st4{fill-rule:evenodd;clip-rule:evenodd;fill:#FF6669;}
	.st5{fill-rule:evenodd;clip-rule:evenodd;fill:#B0E7A7;}
	.st6{fill-rule:evenodd;clip-rule:evenodd;fill:#FFC483;}
</style><g class="st0" id="Rectangle_2_1_"/><g id="coloured_in_1_"><g id="twitter_3_"/><g id="instagram_3_"/><g id="youtube_3_"/><g id="whatsapp_3_"/><g id="facebook_3_"/><g id="reddit_3_"/><g id="telegram_3_"/><g id="nextdoor_3_"/><g id="linkedin_3_"/><g id="pinterest_3_"/></g><g id="outlines_1_"><g id="twitter_2_"/><g id="instagram_2_"/><g id="youtube_2_"/><g id="whatsapp_2_"/><g id="facebook_2_"/><g id="reddit_2_"/><g id="telegram_2_"/><g id="nextdoor_2_"/><g id="linkedin_2_"><g id="Shape_30_1_"><g><path class="st2" d="M20.1,32c0-2,0.5-4.9-0.1-6.8c-1.1-3.7-6.5-2.7-9.6-1.9c-0.1,0-0.2,0.1-0.4,0.2c-0.8,0-1.5,0.4-1.4,1.4      C9.3,34,9.4,43.2,8.8,52.4c0,0.8,0.7,1.5,1.5,1.5c2.9,0,5.8,0,8.6,0c0.8,0,1.5-0.7,1.5-1.5c-0.1-4.5-0.1-9.1-0.2-13.6      C20.2,36.5,20.2,34.2,20.1,32z M17.5,50.9c-1.9,0-3.8,0-5.6,0c0.4-8.3,0.4-16.6-0.2-24.9c2.1-0.6,4.6-1,5.5,1.1      c0.9,2,0.1,6.6,0.1,8.7C17.3,40.9,17.4,45.9,17.5,50.9z M52.6,27.5c-3.9-6.8-11.4-5.2-17.2-2.2c0-0.3,0-0.6-0.1-0.9      c-0.1-0.8-0.6-1.5-1.5-1.5c-2.5,0.1-5.1,0.2-7.6,0.4c-0.5,0-0.9,0.3-1.1,0.6c-0.9-0.3-1.9,0.2-1.9,1.3      c0.1,9.1,0.2,18.2,0.5,27.4c0,0.8,0.7,1.5,1.5,1.5c2.7-0.2,5.3-0.3,8-0.5c0.8-0.1,1.4-0.6,1.5-1.5c0.2-4.1-1.5-18.5,4.5-18.3      c3.1,0.1,2.4,3.7,2.7,6.3c0.3,3,0.4,5.9,0.3,8.9c-0.1,2.3-0.6,4.7,2.1,5.4c2.1,0.5,8.2,0.4,9.8-1.5c2.2-2.6,0.1-8.9-0.2-11.9      C53.5,36.5,55,31.6,52.6,27.5z M49.9,51.1c-1.1,0.1-2.3,0.1-3.4,0.2c-1.7,0.7-2.2,0.2-1.5-1.5c-0.6-1.9,0-5.1-0.1-7.1      c-0.1-1.9-0.3-3.8-0.6-5.7c-0.3-2.3-0.2-5.1-2.7-6c-1.8-0.6-5.2-0.1-6.8,0.9c-2,1.2-2.3,2.9-2.6,5c-0.5,4.5-0.4,9.2-0.6,13.8      c-1.7,0.1-3.4,0.2-5.1,0.3c-0.2-8.3-0.4-16.6-0.5-24.8c0,0,0.1,0,0.1,0c2.1-0.1,4.2-0.2,6.3-0.3c0,0.6-0.2,1.2-0.4,1.8      c-0.4,1.2,1.1,2.3,2.2,1.6c4.5-2.8,12.1-6.7,15.8-0.3c2.2,3.8,0.4,9.9,1.1,14.2C51.6,45.9,53.3,49.6,49.9,51.1z M63.6,45.9      c-0.3-9.8-0.9-19.7-0.8-29.5c0.1-5.3,2.3-13.3-4.2-15.4c-3.9-1.3-8.8-0.7-12.8-0.8c-5.5-0.1-10.9-0.1-16.4-0.1      C23.6,0.2,17.8,0.3,12,0.6c-2,0.1-4.8-0.4-6.8,0.5C4.8,1,4.3,1,3.9,1.4c-5.3,4.5-3.4,14.1-3.4,20.2c0,9.8-0.3,19.7-0.1,29.5      C0.5,55.9,0.2,62.4,6,63.3c8.9,1.4,18.3,0.7,27.2,0.1c4.6-0.3,9.3-0.7,14-0.5c3.8,0.1,8.5,1.7,12.2,0.5      C66.1,61.1,63.8,51.2,63.6,45.9z M60.7,55.6c-0.7-0.7-1.3-1.4-1.9-2.1c-0.5-0.6-1.6-0.5-2.1,0c-0.6,0.6-0.5,1.4,0,2.1      c0.8,1,1.7,2,2.7,2.9c-0.4,0.4-0.8,0.8-1.3,1.1c-1-1.3-2-2.5-3.1-3.6c-1.4-1.3-3.5,0.7-2.1,2.1c0.8,0.8,1.5,1.6,2.2,2.5      c-0.6,0-1.2,0-1.9,0c0-0.2-0.1-0.3-0.2-0.5c-0.8-1-1.6-2.1-2.4-3.1c-0.5-0.6-1.3-1-2-0.5c-0.6,0.4-1,1.4-0.5,2      c0.5,0.6,0.9,1.2,1.4,1.8c-0.6,0-1.1-0.1-1.7-0.1C46.8,59,46,58,45.2,56.9c-0.5-0.6-1.3-1-2-0.5c-0.6,0.4-1,1.4-0.5,2      c0.4,0.6,0.8,1.1,1.3,1.7c-0.6,0-1.3,0-1.9,0c0-0.1-0.1-0.2-0.1-0.2c-0.9-1.1-1.8-2.2-2.6-3.3c-0.5-0.7-1.3-0.9-2-0.5      c-0.7,0.4-1,1.3-0.5,2c0.5,0.7,1.1,1.5,1.6,2.2c-0.7,0-1.4,0.1-2.2,0.1c0.1-0.4-0.1-0.9-0.4-1.3c-0.7-0.9-1.4-1.8-2.2-2.7      c-0.5-0.6-1.4-0.5-2-0.1c-0.6,0.5-0.7,1.2-0.4,1.9c0,0.1,0,0.1,0.1,0.2c0.1,0.2,0.2,0.3,0.4,0.5c0.5,0.6,0.9,1.2,1.4,1.8      c-0.7,0-1.4,0.1-2.1,0.1c-0.9-1.6-2-3.1-3.3-4.4c-1.3-1.4-3.4,0.7-2.1,2.1c0.8,0.8,1.4,1.6,2,2.5c-0.8,0-1.6,0.1-2.4,0.1      c-0.1-0.1-0.1-0.2-0.2-0.3c-1.1-1.1-2-2.4-2.8-3.7c-1-1.6-3.4-0.2-2.6,1.5c0,0.1,0.1,0.1,0.1,0.2c0,0.1,0.1,0.1,0.1,0.2      c0.5,0.8,1.1,1.6,1.7,2.3c-1,0-1.9,0-2.9,0c-0.1-0.2-0.2-0.5-0.3-0.7c-1.1-1.3-2.1-2.7-3-4.1c-1-1.6-3.6-0.1-2.6,1.5      c0.7,1.1,1.6,2.2,2.4,3.3c-0.7,0-1.5,0-2.4,0c0-0.3,0-0.5-0.2-0.7c-0.9-1.3-2-2.6-3.1-3.8c-1.3-1.4-3.4,0.7-2.1,2.1      c0.7,0.7,1.3,1.5,1.9,2.3c-2.6-0.2-4.8-1.1-5.7-3.7c-1.3-4-0.6-9.2-0.6-13.3c0-4.5,0-9.1,0.1-13.6c0-4.2,0-8.4,0.1-12.6      c0-4-1-9.9,1.7-13.3c0.4,0,0.9-0.2,1.2-0.6c0.5-0.7,6.6-0.3,7.6-0.3c1.9-0.1,3.9-0.1,5.8-0.2c4.5-0.1,9-0.2,13.5-0.2      c4.5,0,9,0,13.5,0.1C51,3.2,58.8,1.8,60.3,7.3c0.5,2-0.2,5.1-0.3,7.2c0,1.9-0.1,3.8-0.1,5.7c0,4.4,0.2,8.9,0.3,13.3      c0.2,4.4,0.4,8.9,0.5,13.3c0,0.9,0,1.7,0.1,2.6c-0.3-0.3-0.6-0.6-0.9-0.9c-0.5-0.6-1.6-0.5-2.1,0c-0.6,0.6-0.5,1.5,0,2.1      c1,1,1.9,2.1,2.9,3.1c0.1,0.1,0.1,0.1,0.2,0.1C60.8,54.5,60.8,55.1,60.7,55.6z M11.2,9.8c-0.2,0.2-0.4,0.5-0.4,0.7      c-0.3,0.1-0.6,0.3-0.9,0.6c-2,2.8-2.8,6.9,0.2,9.4c2.3,1.9,6.9,2.1,9.1,0.1c2.3-2,2.4-7.1,0.6-9.4C17.9,8.6,13.6,7.7,11.2,9.8z       M16.6,18.8c-1.4,0.6-4,0.2-5-1c-1.3-1.6-0.2-3.8,0.8-5.2c0.1-0.1,0.1-0.2,0.2-0.4c0.2,0,0.5-0.2,0.7-0.3      c1.4-1.2,4.2,0.5,4.7,1.9C18.4,15.3,18.1,18.2,16.6,18.8z"/></g></g></g><g id="pinterest_2_"/></g></svg>